<?xml version="1.0" encoding="UTF-8" standalone="no"?>
<!-- Created with Inkscape (http://www.inkscape.org/) -->

<svg
   xmlns:dc="http://purl.org/dc/elements/1.1/"
   xmlns:cc="http://creativecommons.org/ns#"
   xmlns:rdf="http://www.w3.org/1999/02/22-rdf-syntax-ns#"
   xmlns:svg="http://www.w3.org/2000/svg"
   xmlns="http://www.w3.org/2000/svg"
   version="1.1"
   width="256"
   height="128"
   id="svg2">
  <defs
     id="defs4" />
  <metadata
     id="metadata7">
    <rdf:RDF>
      <cc:Work
         rdf:about="">
        <dc:format>image/svg+xml</dc:format>
        <dc:type
           rdf:resource="http://purl.org/dc/dcmitype/StillImage" />
        <dc:title></dc:title>
      </cc:Work>
    </rdf:RDF>
  </metadata>
  <g
     transform="translate(0,-924.36218)"
     id="layer1">
    <g
       transform="scale(0.70873829,1.4109581)"
       id="text2997"
       style="font-size:124.66579437px;font-style:normal;font-weight:normal;line-height:125%;letter-spacing:0px;word-spacing:0px;fill:none;stroke:#7df9ff;stroke-width:2;stroke-miterlimit:4;stroke-opacity:1;stroke-dasharray:none;font-family:Sans">
      <path
         d="m 52.206865,744.47183 -9.4746,0 0,-50.98831 -28.797799,0 0,51.11298 -9.4745999,0 0,-87.39073 47.7469989,0 0,87.26606 m -9.4746,-77.91612 -28.922464,0 0,17.57788 28.922464,0.12466 0,-17.70254"
         id="path3002"
         style="font-variant:normal;font-stretch:normal;fill:none;stroke:#7df9ff;stroke-width:2;stroke-miterlimit:4;stroke-opacity:1;stroke-dasharray:none;font-family:UA Squared;-inkscape-font-specification:UA Squared" />
      <path
         d="m 113.44699,666.55571 -19.323198,0 0,77.91612 -9.4746,0 0,-77.91612 -19.073866,0 0,-9.34994 47.871664,0 0,9.34994"
         id="path3004"
         style="font-variant:normal;font-stretch:normal;fill:none;stroke:#7df9ff;stroke-width:2;stroke-miterlimit:4;stroke-opacity:1;stroke-dasharray:none;font-family:UA Squared;-inkscape-font-specification:UA Squared" />
      <path
         d="m 174.56245,666.55571 -19.3232,0 0,77.91612 -9.4746,0 0,-77.91612 -19.07387,0 0,-9.34994 47.87167,0 0,9.34994"
         id="path3006"
         style="font-variant:normal;font-stretch:normal;fill:none;stroke:#7df9ff;stroke-width:2;stroke-miterlimit:4;stroke-opacity:1;stroke-dasharray:none;font-family:UA Squared;-inkscape-font-specification:UA Squared" />
      <path
         d="m 235.55324,744.47183 -9.4746,0 0,-50.98831 -28.7978,0 0,51.11298 -9.4746,0 0,-87.39073 47.747,0 0,87.26606 m -9.4746,-77.91612 -28.92246,0 0,17.57788 28.92246,0.12466 0,-17.70254"
         id="path3008"
         style="font-variant:normal;font-stretch:normal;fill:none;stroke:#7df9ff;stroke-width:2;stroke-miterlimit:4;stroke-opacity:1;stroke-dasharray:none;font-family:UA Squared;-inkscape-font-specification:UA Squared" />
      <path
         d="m 296.79337,735.1219 -0.12467,9.34993 -47.747,0.12467 0,-87.26606 47.747,-0.12467 0,9.34994 -38.2724,0 0,68.69085 38.39707,-0.12466"
         id="path3010"
         style="font-variant:normal;font-stretch:normal;fill:none;stroke:#7df9ff;stroke-width:2;stroke-miterlimit:4;stroke-opacity:1;stroke-dasharray:none;font-family:UA Squared;-inkscape-font-specification:UA Squared" />
      <path
         d="m 357.16084,744.5965 -11.59392,0 -25.43182,-48.24567 0,48.24567 -9.59927,-0.12467 0,-87.26606 9.4746,0 0.12467,22.19052 18.9492,-21.44252 12.09258,-0.12467 -25.55649,29.04713 31.54045,57.72027"
         id="path3012"
         style="font-variant:normal;font-stretch:normal;fill:none;stroke:#7df9ff;stroke-width:2;stroke-miterlimit:4;stroke-opacity:1;stroke-dasharray:none;font-family:UA Squared;-inkscape-font-specification:UA Squared" />
    </g>
  </g>
</svg>
